<svg width="860" height="136" viewBox="0 0 860 136" fill="none" xmlns="http://www.w3.org/2000/svg">
<g clip-path="url(#clip0_2_2)">
<path d="M0.838626 104V36.32H7.07863L50.4706 93.92H48.2626V36.32H55.6546V104H49.5106L6.11863 46.4H8.23063V104H0.838626ZM65.8374 104L95.6934 36.32H102.605L132.941 104H124.685L116.237 84.704L119.789 86.72H78.4134L82.2534 84.704L73.9974 104H65.8374ZM99.0534 45.44L83.5014 81.92L81.1974 80.192H116.909L115.181 81.92L99.2454 45.44H99.0534ZM152.255 104V43.04H128.351V36.32H184.031V43.04H160.223V104H152.255ZM193.776 104V36.32H201.744V66.272H242.544V36.32H250.416V104H242.544V73.088H201.744V104H193.776ZM260.556 104L290.412 36.32H297.324L327.66 104H319.404L310.956 84.704L314.508 86.72H273.132L276.972 84.704L268.716 104H260.556ZM293.772 45.44L278.22 81.92L275.916 80.192H311.628L309.9 81.92L293.964 45.44H293.772ZM337.87 104V36.32H344.11L387.502 93.92H385.294V36.32H392.686V104H386.542L343.15 46.4H345.262V104H337.87ZM434.62 104V36.32H457.084C464.572 36.32 470.908 37.632 476.092 40.256C481.276 42.816 485.212 46.624 487.9 51.68C490.588 56.672 491.932 62.816 491.932 70.112C491.932 77.344 490.588 83.488 487.9 88.544C485.212 93.6 481.276 97.44 476.092 100.064C470.908 102.688 464.572 104 457.084 104H434.62ZM442.588 97.184H456.508C465.724 97.184 472.572 94.944 477.052 90.464C481.532 85.92 483.772 79.136 483.772 70.112C483.772 61.024 481.532 54.24 477.052 49.76C472.572 45.28 465.724 43.04 456.508 43.04H442.588V97.184ZM498.494 104L528.35 36.32H535.262L565.598 104H557.342L548.894 84.704L552.446 86.72H511.07L514.91 84.704L506.654 104H498.494ZM531.71 45.44L516.158 81.92L513.854 80.192H549.566L547.838 81.92L531.902 45.44H531.71ZM575.807 104V36.32H603.455C610.559 36.32 616.063 38.016 619.967 41.408C623.871 44.736 625.823 49.408 625.823 55.424C625.823 59.392 624.927 62.784 623.135 65.6C621.407 68.352 618.943 70.464 615.743 71.936C612.607 73.408 608.927 74.144 604.703 74.144L606.431 72.896H608.351C610.975 72.896 613.311 73.536 615.359 74.816C617.471 76.096 619.135 78.24 620.351 81.248L629.951 104H621.215L611.999 81.632C610.911 78.752 609.279 76.896 607.103 76.064C604.927 75.168 602.207 74.72 598.943 74.72H583.775V104H575.807ZM583.775 68.48H602.303C607.423 68.48 611.295 67.392 613.919 65.216C616.607 62.976 617.951 59.776 617.951 55.616C617.951 51.456 616.607 48.288 613.919 46.112C611.295 43.936 607.423 42.848 602.303 42.848H583.775V68.48ZM642.276 104V36.32H648.516L691.908 93.92H689.7V36.32H697.092V104H690.948L647.556 46.4H649.668V104H642.276ZM713.995 104V36.32H757.195V42.848H721.771V66.368H755.083V72.992H721.771V97.376H757.195V104H713.995ZM770.432 104V36.32H778.4V97.088H812.576V104H770.432ZM822.745 104V36.32H830.713V97.088H864.889V104H822.745Z" fill="white"/>
</g>
<defs>
<clipPath id="clip0_2_2">
<rect width="860" height="136" fill="white"/>
</clipPath>
</defs>
</svg>
