<?xml version="1.0" standalone="no"?>
<!DOCTYPE svg PUBLIC "-//W3C//DTD SVG 20010904//EN"
 "http://www.w3.org/TR/2001/REC-SVG-20010904/DTD/svg10.dtd">
<svg version="1.0" xmlns="http://www.w3.org/2000/svg"
 width="2000.000000pt" height="2000.000000pt" viewBox="0 0 2000.000000 2000.000000"
 preserveAspectRatio="xMidYMid meet">

<g transform="translate(0.000000,2000.000000) scale(0.100000,-0.100000)"
fill="#000000" stroke="none">
<path d="M9912 14928 c-37 -51 -83 -115 -103 -143 -19 -27 -52 -73 -72 -101
l-36 -51 81 -109 c44 -60 92 -126 106 -146 l24 -38 -48 -77 c-113 -184 -246
-341 -380 -452 -83 -69 -175 -131 -214 -146 -35 -13 -304 271 -419 443 l-42
62 71 121 c38 67 70 124 70 126 0 7 -212 244 -215 241 -18 -20 -155 -274 -152
-282 3 -6 46 -57 97 -114 l93 -104 -33 -81 c-51 -127 -116 -248 -201 -375
-117 -174 -96 -158 -186 -143 -159 27 -468 124 -646 204 l-68 30 2 114 c1 62
0 116 -4 119 -10 10 -290 125 -297 122 -4 -2 35 -61 87 -133 189 -261 444
-650 661 -1012 145 -241 302 -527 294 -534 -4 -4 -54 -33 -112 -65 -330 -180
-658 -440 -912 -721 l-66 -73 -602 0 c-557 0 -602 -1 -596 -17 4 -9 28 -53 55
-97 27 -45 131 -220 231 -391 101 -170 210 -354 242 -408 l59 -99 -50 -146
c-80 -237 -135 -474 -167 -727 -26 -197 -26 -654 -1 -845 59 -441 170 -806
356 -1175 270 -534 681 -1002 1171 -1334 431 -292 943 -497 1416 -568 l114
-17 237 -403 c131 -222 240 -403 243 -403 3 0 113 182 244 405 131 223 241
405 245 405 26 0 256 46 356 71 799 201 1488 662 1986 1329 387 517 616 1115
683 1781 19 183 14 573 -8 749 -33 255 -89 499 -165 724 l-41 120 57 95 c148
253 192 327 362 613 100 169 184 314 187 323 6 13 -61 15 -610 15 l-616 0
-147 151 c-164 168 -274 265 -438 388 -124 93 -324 220 -433 275 -58 29 -72
41 -67 54 12 32 179 328 298 527 214 357 433 694 642 986 63 87 109 159 102
159 -6 0 -77 -29 -157 -63 l-145 -62 3 -116 4 -116 -89 -38 c-178 -76 -480
-165 -646 -188 l-37 -6 -79 119 c-89 135 -153 255 -205 384 -35 86 -36 90 -19
110 10 12 53 60 96 107 l77 87 -75 134 c-42 73 -79 136 -83 140 -6 6 -106
-101 -195 -207 l-24 -30 69 -119 c48 -83 68 -126 64 -140 -15 -55 -218 -296
-343 -409 l-76 -67 -56 31 c-214 120 -430 328 -595 570 l-58 87 101 136 c59
80 99 142 95 149 -22 38 -270 377 -276 377 -4 0 -38 -42 -76 -92z m156 -1410
c39 -106 77 -207 83 -225 10 -29 3 -51 -67 -237 -58 -154 -82 -206 -94 -206
-13 0 -37 51 -95 205 l-77 205 16 47 c42 124 150 403 156 403 3 0 38 -87 78
-192z m-937 -164 c56 -43 101 -86 104 -98 21 -88 53 -251 51 -253 -1 -2 -55
38 -119 88 l-115 91 -26 111 c-15 62 -26 118 -26 125 0 26 35 9 131 -64z
m1849 59 c-1 -10 -13 -67 -28 -126 l-27 -108 -115 -89 c-63 -49 -115 -88 -117
-86 -7 7 57 270 69 282 7 7 51 42 98 78 87 66 120 80 120 49z m870 -80 c0 -4
-19 -64 -41 -133 l-42 -125 -125 -83 c-82 -55 -123 -77 -120 -65 3 10 20 72
39 137 l34 120 120 78 c117 76 135 86 135 71z m-3548 -142 l86 -55 22 -75 c12
-42 31 -105 41 -139 l18 -64 -22 15 c-12 8 -68 44 -124 81 l-102 67 -40 122
c-23 67 -41 128 -41 135 0 14 10 9 162 -87z m2018 -646 c636 -68 1206 -302
1710 -703 120 -96 356 -327 446 -437 l69 -85 433 0 c237 0 432 -3 432 -6 0 -7
-352 -608 -396 -676 -13 -21 -24 -44 -24 -52 0 -8 20 -65 44 -128 99 -258 163
-528 197 -833 18 -156 15 -531 -4 -691 -125 -1021 -692 -1904 -1562 -2427
-362 -219 -743 -358 -1155 -423 -91 -14 -174 -28 -185 -30 -13 -2 -39 -37 -74
-96 -127 -219 -246 -418 -251 -418 -5 0 -139 223 -266 442 -36 62 -42 68 -79
72 -338 45 -562 97 -802 187 -873 328 -1560 1000 -1901 1859 -106 267 -167
510 -208 825 -24 180 -24 581 0 760 38 288 109 567 205 809 l48 121 -25 45
c-15 25 -69 117 -121 205 -229 388 -261 443 -261 449 0 3 188 6 418 6 l417 1
40 52 c62 79 309 330 410 415 219 184 418 314 680 442 340 167 695 272 1070
314 164 19 527 19 695 1z"/>
<path d="M9840 12259 c-706 -30 -1398 -327 -1899 -815 l-126 -123 462 -1 463
0 49 30 c96 59 303 151 448 200 253 84 477 120 748 120 86 0 199 -5 253 -11
312 -33 661 -146 919 -297 l71 -42 464 0 463 0 -85 86 c-486 490 -1197 812
-1875 849 -60 4 -128 7 -150 8 -22 2 -114 -1 -205 -4z"/>
<path d="M7110 11020 c0 -4 79 -142 176 -306 97 -164 250 -423 339 -574 89
-151 222 -376 295 -500 73 -124 183 -310 245 -415 61 -104 217 -368 345 -585
128 -217 290 -492 360 -610 70 -118 202 -343 295 -500 423 -715 654 -1107 739
-1252 50 -87 93 -157 96 -157 6 0 334 556 338 573 3 12 -7 28 -298 521 -98
165 -390 660 -650 1100 -260 440 -479 811 -487 825 -15 25 -15 25 4 5 11 -11
94 -112 185 -225 194 -242 790 -982 961 -1193 66 -81 121 -146 123 -144 2 1
-4 56 -12 122 -8 66 -48 392 -88 725 l-74 605 -224 380 c-124 209 -299 506
-390 660 -91 154 -218 370 -283 480 -66 110 -149 252 -186 314 -36 63 -76 125
-87 138 l-21 24 -336 -2 c-184 0 -335 -2 -335 -4 0 -2 50 -88 111 -192 62
-103 162 -273 224 -378 61 -104 194 -329 295 -500 271 -458 310 -525 305 -525
-2 0 -295 360 -650 800 l-646 800 -334 -1 c-184 -1 -335 -5 -335 -9z"/>
<path d="M9180 11021 c0 -4 99 -176 221 -382 121 -206 304 -517 407 -691 103
-175 189 -317 192 -318 3 0 41 62 86 138 564 955 734 1245 734 1252 0 5 -368
9 -820 9 -451 0 -820 -3 -820 -8z"/>
<path d="M11156 10993 c-13 -21 -120 -200 -236 -398 -271 -459 -559 -947 -621
-1051 -29 -48 -46 -88 -43 -100 2 -10 40 -323 84 -694 45 -371 107 -899 140
-1173 33 -274 60 -505 60 -514 0 -29 20 0 112 157 47 80 202 343 345 585 301
509 656 1111 888 1505 89 151 228 388 310 525 489 826 695 1178 695 1186 0 5
-385 8 -855 9 l-855 0 -24 -37z m694 -569 c0 -4 -227 -391 -807 -1374 -107
-181 -123 -204 -123 -180 0 8 -11 105 -25 215 -14 110 -25 213 -25 228 0 31 0
32 374 665 l268 452 169 0 c93 0 169 -3 169 -6z"/>
<path d="M7152 10173 c-112 -386 -150 -721 -122 -1088 94 -1252 950 -2298
2160 -2640 79 -22 275 -65 298 -65 6 0 -87 164 -205 365 l-215 365 -117 57
c-242 121 -422 247 -604 422 -390 377 -625 829 -709 1366 -16 101 -21 184 -22
375 l-1 245 -208 350 c-114 193 -211 351 -216 353 -4 1 -22 -46 -39 -105z"/>
<path d="M12703 10157 c-39 -67 -134 -228 -211 -358 l-140 -237 3 -198 c2
-110 -1 -239 -6 -289 -18 -176 -64 -382 -121 -550 -39 -117 -160 -368 -228
-476 -238 -373 -565 -670 -960 -869 l-135 -68 -210 -358 c-115 -196 -212 -361
-214 -366 -5 -13 54 -4 205 33 414 100 784 279 1134 550 118 91 337 304 441
428 648 774 854 1813 554 2796 -14 47 -29 85 -33 85 -4 0 -39 -55 -79 -123z"/>
</g>
</svg>
